<svg width="368" height="216" viewBox="0 0 368 216" fill="none" xmlns="http://www.w3.org/2000/svg">
<path d="M24.8223 156.094L31.3301 172.336L37.8379 156.094H41.2422V176H38.6172V168.248L38.8633 159.881L32.3281 176H30.3184L23.7969 159.922L24.0566 168.248V176H21.4316V156.094H24.8223ZM54.6133 176C54.4674 175.708 54.349 175.189 54.2578 174.441C53.082 175.663 51.6784 176.273 50.0469 176.273C48.5885 176.273 47.39 175.863 46.4512 175.043C45.5215 174.214 45.0566 173.165 45.0566 171.898C45.0566 170.358 45.64 169.164 46.8066 168.316C47.9824 167.46 49.6322 167.031 51.7559 167.031H54.2168V165.869C54.2168 164.985 53.9525 164.283 53.4238 163.764C52.8952 163.235 52.1159 162.971 51.0859 162.971C50.1836 162.971 49.4271 163.199 48.8164 163.654C48.2057 164.11 47.9004 164.661 47.9004 165.309H45.3574C45.3574 164.57 45.6172 163.859 46.1367 163.176C46.6654 162.483 47.3763 161.936 48.2695 161.535C49.1719 161.134 50.1608 160.934 51.2363 160.934C52.9408 160.934 54.276 161.362 55.2422 162.219C56.2083 163.066 56.7096 164.238 56.7461 165.732V172.541C56.7461 173.899 56.9193 174.979 57.2656 175.781V176H54.6133ZM50.416 174.072C51.209 174.072 51.9609 173.867 52.6719 173.457C53.3828 173.047 53.8978 172.514 54.2168 171.857V168.822H52.2344C49.1354 168.822 47.5859 169.729 47.5859 171.543C47.5859 172.336 47.8503 172.956 48.3789 173.402C48.9076 173.849 49.5866 174.072 50.416 174.072ZM73.207 168.768C73.207 171.019 72.6921 172.833 71.6621 174.209C70.6322 175.585 69.2376 176.273 67.4785 176.273C65.6829 176.273 64.2702 175.704 63.2402 174.564V181.688H60.7109V161.207H63.0215L63.1445 162.848C64.1745 161.572 65.6055 160.934 67.4375 160.934C69.2148 160.934 70.6185 161.604 71.6484 162.943C72.6875 164.283 73.207 166.147 73.207 168.535V168.768ZM70.6777 168.48C70.6777 166.812 70.3223 165.495 69.6113 164.529C68.9004 163.563 67.9251 163.08 66.6855 163.08C65.1543 163.08 64.0059 163.759 63.2402 165.117V172.186C63.9967 173.535 65.1543 174.209 66.7129 174.209C67.9251 174.209 68.8867 173.73 69.5977 172.773C70.3177 171.807 70.6777 170.376 70.6777 168.48ZM86.332 163.258H81.3691V176H78.8398V163.258H73.9727V161.207H86.332V163.258ZM36.252 209H23.209V207.182L30.0996 199.525C31.1204 198.368 31.8223 197.429 32.2051 196.709C32.597 195.98 32.793 195.228 32.793 194.453C32.793 193.414 32.4785 192.562 31.8496 191.896C31.2207 191.231 30.3822 190.898 29.334 190.898C28.0762 190.898 27.0964 191.258 26.3945 191.979C25.7018 192.689 25.3555 193.683 25.3555 194.959H22.8262C22.8262 193.127 23.4141 191.646 24.5898 190.516C25.7747 189.385 27.3561 188.82 29.334 188.82C31.1842 188.82 32.6471 189.308 33.7227 190.283C34.7982 191.249 35.3359 192.539 35.3359 194.152C35.3359 196.112 34.0872 198.445 31.5898 201.152L26.2578 206.936H36.252V209ZM51.4141 200.51C51.4141 203.472 50.9082 205.673 49.8965 207.113C48.8848 208.553 47.3034 209.273 45.1523 209.273C43.0286 209.273 41.4564 208.572 40.4355 207.168C39.4147 205.755 38.8861 203.65 38.8496 200.852V197.475C38.8496 194.549 39.3555 192.375 40.3672 190.953C41.3789 189.531 42.9648 188.82 45.125 188.82C47.2669 188.82 48.8438 189.508 49.8555 190.885C50.8672 192.252 51.3867 194.367 51.4141 197.229V200.51ZM48.8848 197.051C48.8848 194.909 48.584 193.35 47.9824 192.375C47.3809 191.391 46.4284 190.898 45.125 190.898C43.8307 190.898 42.8874 191.386 42.2949 192.361C41.7025 193.337 41.3971 194.836 41.3789 196.859V200.906C41.3789 203.057 41.6888 204.648 42.3086 205.678C42.9375 206.699 43.8854 207.209 45.1523 207.209C46.401 207.209 47.3262 206.726 47.9277 205.76C48.5384 204.794 48.8574 203.271 48.8848 201.193V197.051ZM62.9668 209H60.4238V192.143L55.3242 194.016V191.719L62.5703 188.998H62.9668V209ZM80.0703 200.25C79.5417 200.879 78.9082 201.385 78.1699 201.768C77.4408 202.15 76.6387 202.342 75.7637 202.342C74.6152 202.342 73.6126 202.059 72.7559 201.494C71.9082 200.929 71.252 200.136 70.7871 199.115C70.3223 198.085 70.0898 196.951 70.0898 195.711C70.0898 194.38 70.3405 193.182 70.8418 192.115C71.3522 191.049 72.0723 190.233 73.002 189.668C73.9316 189.103 75.0163 188.82 76.2559 188.82C78.2246 188.82 79.7741 189.559 80.9043 191.035C82.0436 192.503 82.6133 194.508 82.6133 197.051V197.789C82.6133 201.663 81.8477 204.493 80.3164 206.279C78.7852 208.057 76.4746 208.968 73.3848 209.014H72.8926V206.881H73.4258C75.513 206.844 77.1172 206.302 78.2383 205.254C79.3594 204.197 79.9701 202.529 80.0703 200.25ZM76.1738 200.25C77.0215 200.25 77.8008 199.99 78.5117 199.471C79.2318 198.951 79.7559 198.309 80.084 197.543V196.531C80.084 194.872 79.724 193.523 79.0039 192.484C78.2839 191.445 77.3724 190.926 76.2695 190.926C75.1576 190.926 74.2643 191.354 73.5898 192.211C72.9154 193.059 72.5781 194.18 72.5781 195.574C72.5781 196.932 72.9017 198.053 73.5488 198.938C74.2051 199.812 75.0801 200.25 76.1738 200.25Z" fill="#3E3E41"/>
<path fill-rule="evenodd" clip-rule="evenodd" d="M78.75 14.8284L52.5 0L26.25 14.8284L0.414646 29.9684L52.4977 58.1053L104.156 29.7167L78.75 14.8284ZM104.764 30.5238L52.9997 58.9705V120.001L78.75 105.455L104.76 90.2126L105 60.1417L104.764 30.5238ZM51.9997 120.001V58.9729L0.232386 31.0066L0 60.1417L0.239849 90.2126L26.25 105.455L51.9997 120.001Z" fill="#84559C"/>
<path fill-rule="evenodd" clip-rule="evenodd" d="M341.75 14.8284L315.5 0L289.25 14.8284L263.415 29.9684L315.498 58.1053L367.156 29.7167L341.75 14.8284ZM367.764 30.5238L316 58.9705V120.001L341.75 105.455L367.76 90.2126L368 60.1417L367.764 30.5238ZM315 120.001V58.9729L263.232 31.0066L263 60.1417L263.24 90.2126L289.25 105.455L315 120.001Z" fill="#84559C"/>
<path d="M294.27 156.094H296.895V176H294.27V160.66L284.467 176H281.828V156.094H284.467V171.434L294.27 156.094ZM304.045 167.482H307.6C307.791 165.514 308.488 163.932 309.691 162.738C310.904 161.535 312.43 160.934 314.271 160.934C316.204 160.934 317.785 161.585 319.016 162.889C320.246 164.192 320.911 165.887 321.012 167.975L321.025 168.768C321.025 170.208 320.743 171.507 320.178 172.664C319.613 173.822 318.82 174.715 317.799 175.344C316.778 175.964 315.611 176.273 314.299 176.273C312.394 176.273 310.835 175.654 309.623 174.414C308.411 173.165 307.732 171.548 307.586 169.561H304.045V176H301.516V161.207H304.045V167.482ZM310.088 168.768C310.088 170.408 310.466 171.725 311.223 172.719C311.988 173.712 313.014 174.209 314.299 174.209C315.584 174.209 316.6 173.703 317.348 172.691C318.104 171.68 318.482 170.271 318.482 168.467C318.482 166.854 318.1 165.541 317.334 164.529C316.568 163.518 315.548 163.012 314.271 163.012C313.014 163.012 312.002 163.508 311.236 164.502C310.471 165.495 310.088 166.917 310.088 168.768ZM336.229 176H333.699V169.684H326.904V176H324.361V161.207H326.904V167.619H333.699V161.207H336.229V176ZM343.064 166.307H346.906C348.583 166.325 349.91 166.762 350.885 167.619C351.86 168.476 352.348 169.638 352.348 171.105C352.348 172.582 351.846 173.767 350.844 174.66C349.841 175.553 348.492 176 346.797 176H340.535V161.207H343.064V166.307ZM343.064 168.371V173.936H346.824C347.772 173.936 348.506 173.694 349.025 173.211C349.545 172.719 349.805 172.049 349.805 171.201C349.805 170.381 349.549 169.711 349.039 169.191C348.538 168.663 347.831 168.389 346.92 168.371H343.064ZM299.752 209H286.709V207.182L293.6 199.525C294.62 198.368 295.322 197.429 295.705 196.709C296.097 195.98 296.293 195.228 296.293 194.453C296.293 193.414 295.979 192.562 295.35 191.896C294.721 191.231 293.882 190.898 292.834 190.898C291.576 190.898 290.596 191.258 289.895 191.979C289.202 192.689 288.855 193.683 288.855 194.959H286.326C286.326 193.127 286.914 191.646 288.09 190.516C289.275 189.385 290.856 188.82 292.834 188.82C294.684 188.82 296.147 189.308 297.223 190.283C298.298 191.249 298.836 192.539 298.836 194.152C298.836 196.112 297.587 198.445 295.09 201.152L289.758 206.936H299.752V209ZM314.914 200.51C314.914 203.472 314.408 205.673 313.396 207.113C312.385 208.553 310.803 209.273 308.652 209.273C306.529 209.273 304.956 208.572 303.936 207.168C302.915 205.755 302.386 203.65 302.35 200.852V197.475C302.35 194.549 302.855 192.375 303.867 190.953C304.879 189.531 306.465 188.82 308.625 188.82C310.767 188.82 312.344 189.508 313.355 190.885C314.367 192.252 314.887 194.367 314.914 197.229V200.51ZM312.385 197.051C312.385 194.909 312.084 193.35 311.482 192.375C310.881 191.391 309.928 190.898 308.625 190.898C307.331 190.898 306.387 191.386 305.795 192.361C305.202 193.337 304.897 194.836 304.879 196.859V200.906C304.879 203.057 305.189 204.648 305.809 205.678C306.438 206.699 307.385 207.209 308.652 207.209C309.901 207.209 310.826 206.726 311.428 205.76C312.038 204.794 312.357 203.271 312.385 201.193V197.051ZM326.467 209H323.924V192.143L318.824 194.016V191.719L326.07 188.998H326.467V209ZM343.57 200.25C343.042 200.879 342.408 201.385 341.67 201.768C340.941 202.15 340.139 202.342 339.264 202.342C338.115 202.342 337.113 202.059 336.256 201.494C335.408 200.929 334.752 200.136 334.287 199.115C333.822 198.085 333.59 196.951 333.59 195.711C333.59 194.38 333.84 193.182 334.342 192.115C334.852 191.049 335.572 190.233 336.502 189.668C337.432 189.103 338.516 188.82 339.756 188.82C341.725 188.82 343.274 189.559 344.404 191.035C345.544 192.503 346.113 194.508 346.113 197.051V197.789C346.113 201.663 345.348 204.493 343.816 206.279C342.285 208.057 339.975 208.968 336.885 209.014H336.393V206.881H336.926C339.013 206.844 340.617 206.302 341.738 205.254C342.859 204.197 343.47 202.529 343.57 200.25ZM339.674 200.25C340.521 200.25 341.301 199.99 342.012 199.471C342.732 198.951 343.256 198.309 343.584 197.543V196.531C343.584 194.872 343.224 193.523 342.504 192.484C341.784 191.445 340.872 190.926 339.77 190.926C338.658 190.926 337.764 191.354 337.09 192.211C336.415 193.059 336.078 194.18 336.078 195.574C336.078 196.932 336.402 198.053 337.049 198.938C337.705 199.812 338.58 200.25 339.674 200.25Z" fill="#3E3E41"/>
<mask id="mask0" mask-type="alpha" maskUnits="userSpaceOnUse" x="0" y="31" width="52" height="89">
<path d="M52 59L0 31V90L52 120V59Z" fill="#C4C4C4"/>
</mask>
<g mask="url(#mask0)">
<path fill-rule="evenodd" clip-rule="evenodd" d="M-77.6463 112.354L60.3537 -25.6464L59.6466 -26.3535L-78.3534 111.646L-77.6463 112.354ZM-74.6463 115.354L63.3537 -22.6464L62.6466 -23.3535L-75.3534 114.646L-74.6463 115.354ZM-71.6463 118.354L66.3537 -19.6464L65.6466 -20.3535L-72.3534 117.646L-71.6463 118.354ZM-68.6463 121.354L69.3537 -16.6464L68.6466 -17.3535L-69.3534 120.646L-68.6463 121.354ZM-65.6463 124.354L72.3537 -13.6464L71.6466 -14.3535L-66.3534 123.646L-65.6463 124.354ZM-62.6463 127.354L75.3537 -10.6464L74.6466 -11.3535L-63.3534 126.646L-62.6463 127.354ZM-59.6463 130.354L78.3537 -7.64641L77.6466 -8.35352L-60.3534 129.646L-59.6463 130.354ZM-56.6463 133.354L81.3537 -4.64641L80.6466 -5.35352L-57.3534 132.646L-56.6463 133.354ZM-53.6463 136.354L84.3537 -1.64641L83.6466 -2.35352L-54.3534 135.646L-53.6463 136.354ZM-50.6463 139.354L87.3537 1.35359L86.6466 0.646484L-51.3534 138.646L-50.6463 139.354ZM-47.557 142.354L90.443 4.35359L89.7359 3.64648L-48.2641 141.646L-47.557 142.354ZM-44.1463 145.354L93.8537 7.35359L93.1466 6.64648L-44.8534 144.646L-44.1463 145.354ZM-38.1463 145.854L99.8537 7.85355L99.1466 7.14645L-38.8534 145.146L-38.1463 145.854ZM-35.1463 148.854L102.854 10.8536L102.147 10.1464L-35.8534 148.146L-35.1463 148.854ZM-32.1463 151.854L105.854 13.8536L105.147 13.1464L-32.8534 151.146L-32.1463 151.854ZM-29.1463 154.854L108.854 16.8536L108.147 16.1464L-29.8534 154.146L-29.1463 154.854ZM-26.1463 157.854L111.854 19.8536L111.147 19.1464L-26.8534 157.146L-26.1463 157.854ZM-23.1463 160.854L114.854 22.8536L114.147 22.1464L-23.8534 160.146L-23.1463 160.854ZM-20.1463 163.854L117.854 25.8536L117.147 25.1464L-20.8534 163.146L-20.1463 163.854ZM-17.1463 166.854L120.854 28.8536L120.147 28.1464L-17.8534 166.146L-17.1463 166.854ZM-14.1463 169.854L123.854 31.8536L123.147 31.1464L-14.8534 169.146L-14.1463 169.854ZM-11.1463 172.764L126.854 34.7643L126.147 34.0572L-11.8534 172.057L-11.1463 172.764ZM-7.64633 175.854L130.354 37.8536L129.647 37.1464L-8.35344 175.146L-7.64633 175.854Z" fill="white"/>
</g>
<mask id="mask1" mask-type="alpha" maskUnits="userSpaceOnUse" x="263" y="31" width="52" height="89">
<path d="M315 59L263 31V90L315 120V59Z" fill="#C4C4C4"/>
</mask>
<g mask="url(#mask1)">
<path fill-rule="evenodd" clip-rule="evenodd" d="M185.354 112.354L323.354 -25.6464L322.647 -26.3535L184.647 111.646L185.354 112.354ZM188.354 115.354L326.354 -22.6464L325.647 -23.3535L187.647 114.646L188.354 115.354ZM191.354 118.354L329.354 -19.6464L328.647 -20.3535L190.647 117.646L191.354 118.354ZM194.354 121.354L332.354 -16.6464L331.647 -17.3535L193.647 120.646L194.354 121.354ZM197.354 124.354L335.354 -13.6464L334.647 -14.3535L196.647 123.646L197.354 124.354ZM200.354 127.354L338.354 -10.6464L337.647 -11.3535L199.647 126.646L200.354 127.354ZM203.354 130.354L341.354 -7.64641L340.647 -8.35352L202.647 129.646L203.354 130.354ZM206.354 133.354L344.354 -4.64641L343.647 -5.35352L205.647 132.646L206.354 133.354ZM209.354 136.354L347.354 -1.64641L346.647 -2.35352L208.647 135.646L209.354 136.354ZM212.354 139.354L350.354 1.35359L349.647 0.646484L211.647 138.646L212.354 139.354ZM215.443 142.354L353.443 4.35359L352.736 3.64648L214.736 141.646L215.443 142.354ZM218.854 145.354L356.854 7.35359L356.147 6.64648L218.147 144.646L218.854 145.354ZM224.854 145.854L362.854 7.85355L362.147 7.14645L224.147 145.146L224.854 145.854ZM227.854 148.854L365.854 10.8536L365.147 10.1464L227.147 148.146L227.854 148.854ZM230.854 151.854L368.854 13.8536L368.147 13.1464L230.147 151.146L230.854 151.854ZM233.854 154.854L371.854 16.8536L371.147 16.1464L233.147 154.146L233.854 154.854ZM236.854 157.854L374.854 19.8536L374.147 19.1464L236.147 157.146L236.854 157.854ZM239.854 160.854L377.854 22.8536L377.147 22.1464L239.147 160.146L239.854 160.854ZM242.854 163.854L380.854 25.8536L380.147 25.1464L242.147 163.146L242.854 163.854ZM245.854 166.854L383.854 28.8536L383.147 28.1464L245.147 166.146L245.854 166.854ZM248.854 169.854L386.854 31.8536L386.147 31.1464L248.147 169.146L248.854 169.854ZM251.854 172.764L389.854 34.7643L389.147 34.0572L251.147 172.057L251.854 172.764ZM255.354 175.854L393.354 37.8536L392.647 37.1464L254.647 175.146L255.354 175.854Z" fill="white"/>
</g>
</svg>
