<svg width="363" height="216" viewBox="0 0 363 216" fill="none" xmlns="http://www.w3.org/2000/svg">
<path fill-rule="evenodd" clip-rule="evenodd" d="M89.7549 14.8284L63.5049 0L37.2549 14.8284L11.4195 29.9684L63.5026 58.1053L115.161 29.7167L89.7549 14.8284ZM115.769 30.5238L64.0046 58.9705V120.001L89.7549 105.455L115.765 90.2126L116.005 60.1417L115.769 30.5238ZM63.0046 120.001V58.9729L11.2373 31.0066L11.0049 60.1417L11.2447 90.2126L37.2549 105.455L63.0046 120.001Z" fill="#84559C"/>
<path fill-rule="evenodd" clip-rule="evenodd" d="M335.76 14.8284L309.51 0L283.26 14.8284L257.424 29.9684L309.507 58.1053L361.166 29.7167L335.76 14.8284ZM361.774 30.5238L310.009 58.9705V120.001L335.76 105.455L361.77 90.2126L362.01 60.1417L361.774 30.5238ZM309.009 120.001V58.9729L257.242 31.0066L257.01 60.1417L257.25 90.2126L283.26 105.455L309.009 120.001Z" fill="#84559C"/>
<path d="M17.3418 169.684C17.0957 171.789 16.3164 173.416 15.0039 174.564C13.7005 175.704 11.9642 176.273 9.79492 176.273C7.44336 176.273 5.55664 175.43 4.13477 173.744C2.72201 172.058 2.01562 169.802 2.01562 166.977V165.062C2.01562 163.212 2.34375 161.585 3 160.182C3.66536 158.778 4.60417 157.702 5.81641 156.955C7.02865 156.199 8.43229 155.82 10.0273 155.82C12.1419 155.82 13.8372 156.413 15.1133 157.598C16.3893 158.773 17.1322 160.405 17.3418 162.492H14.7031C14.4753 160.906 13.9785 159.758 13.2129 159.047C12.4564 158.336 11.3945 157.98 10.0273 157.98C8.35026 157.98 7.0332 158.6 6.07617 159.84C5.12826 161.079 4.6543 162.843 4.6543 165.131V167.059C4.6543 169.219 5.10547 170.937 6.00781 172.213C6.91016 173.489 8.17253 174.127 9.79492 174.127C11.2533 174.127 12.3698 173.799 13.1445 173.143C13.9284 172.477 14.4479 171.324 14.7031 169.684H17.3418ZM26.6797 176.273C24.6745 176.273 23.043 175.617 21.7852 174.305C20.5273 172.983 19.8984 171.219 19.8984 169.014V168.549C19.8984 167.081 20.1764 165.773 20.7324 164.625C21.2975 163.467 22.0814 162.565 23.084 161.918C24.0957 161.262 25.1895 160.934 26.3652 160.934C28.2884 160.934 29.7832 161.567 30.8496 162.834C31.916 164.101 32.4492 165.915 32.4492 168.275V169.328H22.4277C22.4642 170.786 22.888 171.967 23.6992 172.869C24.5195 173.762 25.5586 174.209 26.8164 174.209C27.7096 174.209 28.4661 174.027 29.0859 173.662C29.7057 173.298 30.248 172.814 30.7129 172.213L32.2578 173.416C31.0182 175.321 29.1589 176.273 26.6797 176.273ZM26.3652 163.012C25.3444 163.012 24.4876 163.385 23.7949 164.133C23.1022 164.871 22.6738 165.91 22.5098 167.25H29.9199V167.059C29.847 165.773 29.5007 164.78 28.8809 164.078C28.2611 163.367 27.4225 163.012 26.3652 163.012ZM47.4746 176H44.9453V169.684H38.1504V176H35.6074V161.207H38.1504V167.619H44.9453V161.207H47.4746V176ZM62.541 163.258H57.5781V176H55.0488V163.258H50.1816V161.207H62.541V163.258ZM76.3086 161.207V176H73.7656V170.244H69.9512L66.4648 176H63.7305L67.4492 169.861C66.5013 169.515 65.7721 168.982 65.2617 168.262C64.7604 167.533 64.5098 166.685 64.5098 165.719C64.5098 164.37 65.0156 163.285 66.0273 162.465C67.0391 161.635 68.3926 161.216 70.0879 161.207H76.3086ZM67.0527 165.746C67.0527 166.466 67.2988 167.049 67.791 167.496C68.2832 167.934 68.9349 168.157 69.7461 168.166H73.7656V163.258H70.1289C69.1901 163.258 68.4427 163.49 67.8867 163.955C67.3307 164.411 67.0527 165.008 67.0527 165.746ZM86.8633 162.055C88.7227 162.055 90.2083 162.679 91.3203 163.928C92.4414 165.167 93.002 166.803 93.002 168.836V169.068C93.002 170.463 92.7331 171.712 92.1953 172.814C91.6576 173.908 90.8828 174.76 89.8711 175.371C88.8685 175.973 87.7109 176.273 86.3984 176.273C84.4115 176.273 82.8118 175.613 81.5996 174.291C80.3874 172.96 79.7812 171.178 79.7812 168.945V167.715C79.7812 164.607 80.3555 162.137 81.5039 160.305C82.6615 158.473 84.3659 157.356 86.6172 156.955C87.8932 156.727 88.7546 156.449 89.2012 156.121C89.6478 155.793 89.8711 155.342 89.8711 154.768H91.9492C91.9492 155.907 91.6895 156.796 91.1699 157.434C90.6595 158.072 89.8392 158.523 88.709 158.787L86.8223 159.211C85.3184 159.566 84.1882 160.168 83.4316 161.016C82.6842 161.854 82.1966 162.975 81.9688 164.379C83.3086 162.829 84.9401 162.055 86.8633 162.055ZM86.3711 164.133C85.1315 164.133 84.1471 164.552 83.418 165.391C82.6888 166.22 82.3242 167.373 82.3242 168.85V169.068C82.3242 170.654 82.6888 171.912 83.418 172.842C84.1562 173.762 85.1497 174.223 86.3984 174.223C87.6562 174.223 88.6497 173.758 89.3789 172.828C90.1081 171.898 90.4727 170.54 90.4727 168.754C90.4727 167.359 90.1035 166.243 89.3652 165.404C88.6361 164.557 87.638 164.133 86.3711 164.133ZM108.096 168.768C108.096 171.019 107.581 172.833 106.551 174.209C105.521 175.585 104.126 176.273 102.367 176.273C100.572 176.273 99.1589 175.704 98.1289 174.564V181.688H95.5996V161.207H97.9102L98.0332 162.848C99.0632 161.572 100.494 160.934 102.326 160.934C104.104 160.934 105.507 161.604 106.537 162.943C107.576 164.283 108.096 166.147 108.096 168.535V168.768ZM105.566 168.48C105.566 166.812 105.211 165.495 104.5 164.529C103.789 163.563 102.814 163.08 101.574 163.08C100.043 163.08 98.8945 163.759 98.1289 165.117V172.186C98.8854 173.535 100.043 174.209 101.602 174.209C102.814 174.209 103.775 173.73 104.486 172.773C105.206 171.807 105.566 170.376 105.566 168.48ZM114.084 166.307H117.926C119.603 166.325 120.929 166.762 121.904 167.619C122.88 168.476 123.367 169.638 123.367 171.105C123.367 172.582 122.866 173.767 121.863 174.66C120.861 175.553 119.512 176 117.816 176H111.555V161.207H114.084V166.307ZM114.084 168.371V173.936H117.844C118.792 173.936 119.525 173.694 120.045 173.211C120.564 172.719 120.824 172.049 120.824 171.201C120.824 170.381 120.569 169.711 120.059 169.191C119.557 168.663 118.851 168.389 117.939 168.371H114.084ZM45.752 209H32.709V207.182L39.5996 199.525C40.6204 198.368 41.3223 197.429 41.7051 196.709C42.097 195.98 42.293 195.228 42.293 194.453C42.293 193.414 41.9785 192.562 41.3496 191.896C40.7207 191.231 39.8822 190.898 38.834 190.898C37.5762 190.898 36.5964 191.258 35.8945 191.979C35.2018 192.689 34.8555 193.683 34.8555 194.959H32.3262C32.3262 193.127 32.9141 191.646 34.0898 190.516C35.2747 189.385 36.8561 188.82 38.834 188.82C40.6842 188.82 42.1471 189.308 43.2227 190.283C44.2982 191.249 44.8359 192.539 44.8359 194.152C44.8359 196.112 43.5872 198.445 41.0898 201.152L35.7578 206.936H45.752V209ZM60.9141 200.51C60.9141 203.472 60.4082 205.673 59.3965 207.113C58.3848 208.553 56.8034 209.273 54.6523 209.273C52.5286 209.273 50.9564 208.572 49.9355 207.168C48.9147 205.755 48.3861 203.65 48.3496 200.852V197.475C48.3496 194.549 48.8555 192.375 49.8672 190.953C50.8789 189.531 52.4648 188.82 54.625 188.82C56.7669 188.82 58.3438 189.508 59.3555 190.885C60.3672 192.252 60.8867 194.367 60.9141 197.229V200.51ZM58.3848 197.051C58.3848 194.909 58.084 193.35 57.4824 192.375C56.8809 191.391 55.9284 190.898 54.625 190.898C53.3307 190.898 52.3874 191.386 51.7949 192.361C51.2025 193.337 50.8971 194.836 50.8789 196.859V200.906C50.8789 203.057 51.1888 204.648 51.8086 205.678C52.4375 206.699 53.3854 207.209 54.6523 207.209C55.901 207.209 56.8262 206.726 57.4277 205.76C58.0384 204.794 58.3574 203.271 58.3848 201.193V197.051ZM72.4668 209H69.9238V192.143L64.8242 194.016V191.719L72.0703 188.998H72.4668V209ZM89.5703 200.25C89.0417 200.879 88.4082 201.385 87.6699 201.768C86.9408 202.15 86.1387 202.342 85.2637 202.342C84.1152 202.342 83.1126 202.059 82.2559 201.494C81.4082 200.929 80.752 200.136 80.2871 199.115C79.8223 198.085 79.5898 196.951 79.5898 195.711C79.5898 194.38 79.8405 193.182 80.3418 192.115C80.8522 191.049 81.5723 190.233 82.502 189.668C83.4316 189.103 84.5163 188.82 85.7559 188.82C87.7246 188.82 89.2741 189.559 90.4043 191.035C91.5436 192.503 92.1133 194.508 92.1133 197.051V197.789C92.1133 201.663 91.3477 204.493 89.8164 206.279C88.2852 208.057 85.9746 208.968 82.8848 209.014H82.3926V206.881H82.9258C85.013 206.844 86.6172 206.302 87.7383 205.254C88.8594 204.197 89.4701 202.529 89.5703 200.25ZM85.6738 200.25C86.5215 200.25 87.3008 199.99 88.0117 199.471C88.7318 198.951 89.2559 198.309 89.584 197.543V196.531C89.584 194.872 89.224 193.523 88.5039 192.484C87.7839 191.445 86.8724 190.926 85.7695 190.926C84.6576 190.926 83.7643 191.354 83.0898 192.211C82.4154 193.059 82.0781 194.18 82.0781 195.574C82.0781 196.932 82.4017 198.053 83.0488 198.938C83.7051 199.812 84.5801 200.25 85.6738 200.25Z" fill="#3E3E41"/>
<path d="M277.883 176H275.244V166.799H265.209V176H262.584V156.094H265.209V164.652H275.244V156.094H277.883V176ZM281.479 168.467C281.479 167.018 281.761 165.714 282.326 164.557C282.9 163.399 283.693 162.506 284.705 161.877C285.726 161.248 286.888 160.934 288.191 160.934C290.206 160.934 291.833 161.631 293.072 163.025C294.321 164.42 294.945 166.275 294.945 168.59V168.768C294.945 170.208 294.667 171.502 294.111 172.65C293.564 173.79 292.776 174.678 291.746 175.316C290.725 175.954 289.549 176.273 288.219 176.273C286.214 176.273 284.587 175.576 283.338 174.182C282.098 172.787 281.479 170.941 281.479 168.645V168.467ZM284.021 168.768C284.021 170.408 284.4 171.725 285.156 172.719C285.922 173.712 286.943 174.209 288.219 174.209C289.504 174.209 290.525 173.708 291.281 172.705C292.038 171.693 292.416 170.281 292.416 168.467C292.416 166.844 292.029 165.532 291.254 164.529C290.488 163.518 289.467 163.012 288.191 163.012C286.943 163.012 285.936 163.508 285.17 164.502C284.404 165.495 284.021 166.917 284.021 168.768ZM309.424 161.207V176H306.881V170.244H303.066L299.58 176H296.846L300.564 169.861C299.617 169.515 298.887 168.982 298.377 168.262C297.876 167.533 297.625 166.685 297.625 165.719C297.625 164.37 298.131 163.285 299.143 162.465C300.154 161.635 301.508 161.216 303.203 161.207H309.424ZM300.168 165.746C300.168 166.466 300.414 167.049 300.906 167.496C301.398 167.934 302.05 168.157 302.861 168.166H306.881V163.258H303.244C302.305 163.258 301.558 163.49 301.002 163.955C300.446 164.411 300.168 165.008 300.168 165.746ZM319.979 162.055C321.838 162.055 323.324 162.679 324.436 163.928C325.557 165.167 326.117 166.803 326.117 168.836V169.068C326.117 170.463 325.848 171.712 325.311 172.814C324.773 173.908 323.998 174.76 322.986 175.371C321.984 175.973 320.826 176.273 319.514 176.273C317.527 176.273 315.927 175.613 314.715 174.291C313.503 172.96 312.896 171.178 312.896 168.945V167.715C312.896 164.607 313.471 162.137 314.619 160.305C315.777 158.473 317.481 157.356 319.732 156.955C321.008 156.727 321.87 156.449 322.316 156.121C322.763 155.793 322.986 155.342 322.986 154.768H325.064C325.064 155.907 324.805 156.796 324.285 157.434C323.775 158.072 322.954 158.523 321.824 158.787L319.938 159.211C318.434 159.566 317.303 160.168 316.547 161.016C315.799 161.854 315.312 162.975 315.084 164.379C316.424 162.829 318.055 162.055 319.979 162.055ZM319.486 164.133C318.247 164.133 317.262 164.552 316.533 165.391C315.804 166.22 315.439 167.373 315.439 168.85V169.068C315.439 170.654 315.804 171.912 316.533 172.842C317.271 173.762 318.265 174.223 319.514 174.223C320.771 174.223 321.765 173.758 322.494 172.828C323.223 171.898 323.588 170.54 323.588 168.754C323.588 167.359 323.219 166.243 322.48 165.404C321.751 164.557 320.753 164.133 319.486 164.133ZM341.211 168.768C341.211 171.019 340.696 172.833 339.666 174.209C338.636 175.585 337.242 176.273 335.482 176.273C333.687 176.273 332.274 175.704 331.244 174.564V181.688H328.715V161.207H331.025L331.148 162.848C332.178 161.572 333.609 160.934 335.441 160.934C337.219 160.934 338.622 161.604 339.652 162.943C340.691 164.283 341.211 166.147 341.211 168.535V168.768ZM338.682 168.48C338.682 166.812 338.326 165.495 337.615 164.529C336.904 163.563 335.929 163.08 334.689 163.08C333.158 163.08 332.01 163.759 331.244 165.117V172.186C332.001 173.535 333.158 174.209 334.717 174.209C335.929 174.209 336.891 173.73 337.602 172.773C338.322 171.807 338.682 170.376 338.682 168.48ZM347.199 166.307H351.041C352.718 166.325 354.044 166.762 355.02 167.619C355.995 168.476 356.482 169.638 356.482 171.105C356.482 172.582 355.981 173.767 354.979 174.66C353.976 175.553 352.627 176 350.932 176H344.67V161.207H347.199V166.307ZM347.199 168.371V173.936H350.959C351.907 173.936 352.641 173.694 353.16 173.211C353.68 172.719 353.939 172.049 353.939 171.201C353.939 170.381 353.684 169.711 353.174 169.191C352.673 168.663 351.966 168.389 351.055 168.371H347.199ZM292.252 209H279.209V207.182L286.1 199.525C287.12 198.368 287.822 197.429 288.205 196.709C288.597 195.98 288.793 195.228 288.793 194.453C288.793 193.414 288.479 192.562 287.85 191.896C287.221 191.231 286.382 190.898 285.334 190.898C284.076 190.898 283.096 191.258 282.395 191.979C281.702 192.689 281.355 193.683 281.355 194.959H278.826C278.826 193.127 279.414 191.646 280.59 190.516C281.775 189.385 283.356 188.82 285.334 188.82C287.184 188.82 288.647 189.308 289.723 190.283C290.798 191.249 291.336 192.539 291.336 194.152C291.336 196.112 290.087 198.445 287.59 201.152L282.258 206.936H292.252V209ZM307.414 200.51C307.414 203.472 306.908 205.673 305.896 207.113C304.885 208.553 303.303 209.273 301.152 209.273C299.029 209.273 297.456 208.572 296.436 207.168C295.415 205.755 294.886 203.65 294.85 200.852V197.475C294.85 194.549 295.355 192.375 296.367 190.953C297.379 189.531 298.965 188.82 301.125 188.82C303.267 188.82 304.844 189.508 305.855 190.885C306.867 192.252 307.387 194.367 307.414 197.229V200.51ZM304.885 197.051C304.885 194.909 304.584 193.35 303.982 192.375C303.381 191.391 302.428 190.898 301.125 190.898C299.831 190.898 298.887 191.386 298.295 192.361C297.702 193.337 297.397 194.836 297.379 196.859V200.906C297.379 203.057 297.689 204.648 298.309 205.678C298.938 206.699 299.885 207.209 301.152 207.209C302.401 207.209 303.326 206.726 303.928 205.76C304.538 204.794 304.857 203.271 304.885 201.193V197.051ZM318.967 209H316.424V192.143L311.324 194.016V191.719L318.57 188.998H318.967V209ZM336.07 200.25C335.542 200.879 334.908 201.385 334.17 201.768C333.441 202.15 332.639 202.342 331.764 202.342C330.615 202.342 329.613 202.059 328.756 201.494C327.908 200.929 327.252 200.136 326.787 199.115C326.322 198.085 326.09 196.951 326.09 195.711C326.09 194.38 326.34 193.182 326.842 192.115C327.352 191.049 328.072 190.233 329.002 189.668C329.932 189.103 331.016 188.82 332.256 188.82C334.225 188.82 335.774 189.559 336.904 191.035C338.044 192.503 338.613 194.508 338.613 197.051V197.789C338.613 201.663 337.848 204.493 336.316 206.279C334.785 208.057 332.475 208.968 329.385 209.014H328.893V206.881H329.426C331.513 206.844 333.117 206.302 334.238 205.254C335.359 204.197 335.97 202.529 336.07 200.25ZM332.174 200.25C333.021 200.25 333.801 199.99 334.512 199.471C335.232 198.951 335.756 198.309 336.084 197.543V196.531C336.084 194.872 335.724 193.523 335.004 192.484C334.284 191.445 333.372 190.926 332.27 190.926C331.158 190.926 330.264 191.354 329.59 192.211C328.915 193.059 328.578 194.18 328.578 195.574C328.578 196.932 328.902 198.053 329.549 198.938C330.205 199.812 331.08 200.25 332.174 200.25Z" fill="#3E3E41"/>
<mask id="mask0" mask-type="alpha" maskUnits="userSpaceOnUse" x="11" y="31" width="52" height="89">
<path d="M63 59L11 31V90L63 120V59Z" fill="#C4C4C4"/>
</mask>
<g mask="url(#mask0)">
<path fill-rule="evenodd" clip-rule="evenodd" d="M-66.6463 112.354L71.3537 -25.6464L70.6466 -26.3535L-67.3534 111.646L-66.6463 112.354ZM-63.6463 115.354L74.3537 -22.6464L73.6466 -23.3535L-64.3534 114.646L-63.6463 115.354ZM-60.6463 118.354L77.3537 -19.6464L76.6466 -20.3535L-61.3534 117.646L-60.6463 118.354ZM-57.6463 121.354L80.3537 -16.6464L79.6466 -17.3535L-58.3534 120.646L-57.6463 121.354ZM-54.6463 124.354L83.3537 -13.6464L82.6466 -14.3535L-55.3534 123.646L-54.6463 124.354ZM-51.6463 127.354L86.3537 -10.6464L85.6466 -11.3535L-52.3534 126.646L-51.6463 127.354ZM-48.6463 130.354L89.3537 -7.64641L88.6466 -8.35352L-49.3534 129.646L-48.6463 130.354ZM-45.6463 133.354L92.3537 -4.64641L91.6466 -5.35352L-46.3534 132.646L-45.6463 133.354ZM-42.6463 136.354L95.3537 -1.64641L94.6466 -2.35352L-43.3534 135.646L-42.6463 136.354ZM-39.6463 139.354L98.3537 1.35359L97.6466 0.646484L-40.3534 138.646L-39.6463 139.354ZM-36.557 142.354L101.443 4.35359L100.736 3.64648L-37.2641 141.646L-36.557 142.354ZM-33.1463 145.354L104.854 7.35359L104.147 6.64648L-33.8534 144.646L-33.1463 145.354ZM-27.1463 145.854L110.854 7.85355L110.147 7.14645L-27.8534 145.146L-27.1463 145.854ZM-24.1463 148.854L113.854 10.8536L113.147 10.1464L-24.8534 148.146L-24.1463 148.854ZM-21.1463 151.854L116.854 13.8536L116.147 13.1464L-21.8534 151.146L-21.1463 151.854ZM-18.1463 154.854L119.854 16.8536L119.147 16.1464L-18.8534 154.146L-18.1463 154.854ZM-15.1463 157.854L122.854 19.8536L122.147 19.1464L-15.8534 157.146L-15.1463 157.854ZM-12.1463 160.854L125.854 22.8536L125.147 22.1464L-12.8534 160.146L-12.1463 160.854ZM-9.14631 163.854L128.854 25.8536L128.147 25.1464L-9.85342 163.146L-9.14631 163.854ZM-6.14631 166.854L131.854 28.8536L131.147 28.1464L-6.85342 166.146L-6.14631 166.854ZM-3.14631 169.854L134.854 31.8536L134.147 31.1464L-3.85342 169.146L-3.14631 169.854ZM-0.146309 172.764L137.854 34.7643L137.147 34.0572L-0.853416 172.057L-0.146309 172.764ZM3.35368 175.854L141.354 37.8536L140.647 37.1464L2.64658 175.146L3.35368 175.854Z" fill="white"/>
</g>
<mask id="mask1" mask-type="alpha" maskUnits="userSpaceOnUse" x="257" y="31" width="52" height="89">
<path d="M309 59L257 31V90L309 120V59Z" fill="#C4C4C4"/>
</mask>
<g mask="url(#mask1)">
<path fill-rule="evenodd" clip-rule="evenodd" d="M179.354 112.354L317.354 -25.6464L316.647 -26.3535L178.647 111.646L179.354 112.354ZM182.354 115.354L320.354 -22.6464L319.647 -23.3535L181.647 114.646L182.354 115.354ZM185.354 118.354L323.354 -19.6464L322.647 -20.3535L184.647 117.646L185.354 118.354ZM188.354 121.354L326.354 -16.6464L325.647 -17.3535L187.647 120.646L188.354 121.354ZM191.354 124.354L329.354 -13.6464L328.647 -14.3535L190.647 123.646L191.354 124.354ZM194.354 127.354L332.354 -10.6464L331.647 -11.3535L193.647 126.646L194.354 127.354ZM197.354 130.354L335.354 -7.64641L334.647 -8.35352L196.647 129.646L197.354 130.354ZM200.354 133.354L338.354 -4.64641L337.647 -5.35352L199.647 132.646L200.354 133.354ZM203.354 136.354L341.354 -1.64641L340.647 -2.35352L202.647 135.646L203.354 136.354ZM206.354 139.354L344.354 1.35359L343.647 0.646484L205.647 138.646L206.354 139.354ZM209.443 142.354L347.443 4.35359L346.736 3.64648L208.736 141.646L209.443 142.354ZM212.854 145.354L350.854 7.35359L350.147 6.64648L212.147 144.646L212.854 145.354ZM218.854 145.854L356.854 7.85355L356.147 7.14645L218.147 145.146L218.854 145.854ZM221.854 148.854L359.854 10.8536L359.147 10.1464L221.147 148.146L221.854 148.854ZM224.854 151.854L362.854 13.8536L362.147 13.1464L224.147 151.146L224.854 151.854ZM227.854 154.854L365.854 16.8536L365.147 16.1464L227.147 154.146L227.854 154.854ZM230.854 157.854L368.854 19.8536L368.147 19.1464L230.147 157.146L230.854 157.854ZM233.854 160.854L371.854 22.8536L371.147 22.1464L233.147 160.146L233.854 160.854ZM236.854 163.854L374.854 25.8536L374.147 25.1464L236.147 163.146L236.854 163.854ZM239.854 166.854L377.854 28.8536L377.147 28.1464L239.147 166.146L239.854 166.854ZM242.854 169.854L380.854 31.8536L380.147 31.1464L242.147 169.146L242.854 169.854ZM245.854 172.764L383.854 34.7643L383.147 34.0572L245.147 172.057L245.854 172.764ZM249.354 175.854L387.354 37.8536L386.647 37.1464L248.647 175.146L249.354 175.854Z" fill="white"/>
</g>
</svg>
