<svg width="381" height="216" viewBox="0 0 381 216" fill="none" xmlns="http://www.w3.org/2000/svg">
<path fill-rule="evenodd" clip-rule="evenodd" d="M88.75 14.8284L62.5 0L36.25 14.8284L10.4146 29.9684L62.4977 58.1053L114.156 29.7167L88.75 14.8284ZM114.764 30.5238L62.9997 58.9705V120.001L88.75 105.455L114.76 90.2126L115 60.1417L114.764 30.5238ZM61.9997 120.001V58.9729L10.2324 31.0066L10 60.1417L10.2398 90.2126L36.25 105.455L61.9997 120.001Z" fill="#84559C"/>
<path fill-rule="evenodd" clip-rule="evenodd" d="M351.75 14.8284L325.5 0L299.25 14.8284L273.415 29.9684L325.498 58.1053L377.156 29.7167L351.75 14.8284ZM377.764 30.5238L326 58.9705V120.001L351.75 105.455L377.76 90.2126L378 60.1417L377.764 30.5238ZM325 120.001V58.9729L273.232 31.0066L273 60.1417L273.24 90.2126L299.25 105.455L325 120.001Z" fill="#84559C"/>
<path d="M17.3418 169.684C17.0957 171.789 16.3164 173.416 15.0039 174.564C13.7005 175.704 11.9642 176.273 9.79492 176.273C7.44336 176.273 5.55664 175.43 4.13477 173.744C2.72201 172.058 2.01562 169.802 2.01562 166.977V165.062C2.01562 163.212 2.34375 161.585 3 160.182C3.66536 158.778 4.60417 157.702 5.81641 156.955C7.02865 156.199 8.43229 155.82 10.0273 155.82C12.1419 155.82 13.8372 156.413 15.1133 157.598C16.3893 158.773 17.1322 160.405 17.3418 162.492H14.7031C14.4753 160.906 13.9785 159.758 13.2129 159.047C12.4564 158.336 11.3945 157.98 10.0273 157.98C8.35026 157.98 7.0332 158.6 6.07617 159.84C5.12826 161.079 4.6543 162.843 4.6543 165.131V167.059C4.6543 169.219 5.10547 170.937 6.00781 172.213C6.91016 173.489 8.17253 174.127 9.79492 174.127C11.2533 174.127 12.3698 173.799 13.1445 173.143C13.9284 172.477 14.4479 171.324 14.7031 169.684H17.3418ZM26.6797 176.273C24.6745 176.273 23.043 175.617 21.7852 174.305C20.5273 172.983 19.8984 171.219 19.8984 169.014V168.549C19.8984 167.081 20.1764 165.773 20.7324 164.625C21.2975 163.467 22.0814 162.565 23.084 161.918C24.0957 161.262 25.1895 160.934 26.3652 160.934C28.2884 160.934 29.7832 161.567 30.8496 162.834C31.916 164.101 32.4492 165.915 32.4492 168.275V169.328H22.4277C22.4642 170.786 22.888 171.967 23.6992 172.869C24.5195 173.762 25.5586 174.209 26.8164 174.209C27.7096 174.209 28.4661 174.027 29.0859 173.662C29.7057 173.298 30.248 172.814 30.7129 172.213L32.2578 173.416C31.0182 175.321 29.1589 176.273 26.6797 176.273ZM26.3652 163.012C25.3444 163.012 24.4876 163.385 23.7949 164.133C23.1022 164.871 22.6738 165.91 22.5098 167.25H29.9199V167.059C29.847 165.773 29.5007 164.78 28.8809 164.078C28.2611 163.367 27.4225 163.012 26.3652 163.012ZM47.4746 176H44.9453V169.684H38.1504V176H35.6074V161.207H38.1504V167.619H44.9453V161.207H47.4746V176ZM62.541 163.258H57.5781V176H55.0488V163.258H50.1816V161.207H62.541V163.258ZM76.3086 161.207V176H73.7656V170.244H69.9512L66.4648 176H63.7305L67.4492 169.861C66.5013 169.515 65.7721 168.982 65.2617 168.262C64.7604 167.533 64.5098 166.685 64.5098 165.719C64.5098 164.37 65.0156 163.285 66.0273 162.465C67.0391 161.635 68.3926 161.216 70.0879 161.207H76.3086ZM67.0527 165.746C67.0527 166.466 67.2988 167.049 67.791 167.496C68.2832 167.934 68.9349 168.157 69.7461 168.166H73.7656V163.258H70.1289C69.1901 163.258 68.4427 163.49 67.8867 163.955C67.3307 164.411 67.0527 165.008 67.0527 165.746ZM86.8633 162.055C88.7227 162.055 90.2083 162.679 91.3203 163.928C92.4414 165.167 93.002 166.803 93.002 168.836V169.068C93.002 170.463 92.7331 171.712 92.1953 172.814C91.6576 173.908 90.8828 174.76 89.8711 175.371C88.8685 175.973 87.7109 176.273 86.3984 176.273C84.4115 176.273 82.8118 175.613 81.5996 174.291C80.3874 172.96 79.7812 171.178 79.7812 168.945V167.715C79.7812 164.607 80.3555 162.137 81.5039 160.305C82.6615 158.473 84.3659 157.356 86.6172 156.955C87.8932 156.727 88.7546 156.449 89.2012 156.121C89.6478 155.793 89.8711 155.342 89.8711 154.768H91.9492C91.9492 155.907 91.6895 156.796 91.1699 157.434C90.6595 158.072 89.8392 158.523 88.709 158.787L86.8223 159.211C85.3184 159.566 84.1882 160.168 83.4316 161.016C82.6842 161.854 82.1966 162.975 81.9688 164.379C83.3086 162.829 84.9401 162.055 86.8633 162.055ZM86.3711 164.133C85.1315 164.133 84.1471 164.552 83.418 165.391C82.6888 166.22 82.3242 167.373 82.3242 168.85V169.068C82.3242 170.654 82.6888 171.912 83.418 172.842C84.1562 173.762 85.1497 174.223 86.3984 174.223C87.6562 174.223 88.6497 173.758 89.3789 172.828C90.1081 171.898 90.4727 170.54 90.4727 168.754C90.4727 167.359 90.1035 166.243 89.3652 165.404C88.6361 164.557 87.638 164.133 86.3711 164.133ZM108.096 168.768C108.096 171.019 107.581 172.833 106.551 174.209C105.521 175.585 104.126 176.273 102.367 176.273C100.572 176.273 99.1589 175.704 98.1289 174.564V181.688H95.5996V161.207H97.9102L98.0332 162.848C99.0632 161.572 100.494 160.934 102.326 160.934C104.104 160.934 105.507 161.604 106.537 162.943C107.576 164.283 108.096 166.147 108.096 168.535V168.768ZM105.566 168.48C105.566 166.812 105.211 165.495 104.5 164.529C103.789 163.563 102.814 163.08 101.574 163.08C100.043 163.08 98.8945 163.759 98.1289 165.117V172.186C98.8854 173.535 100.043 174.209 101.602 174.209C102.814 174.209 103.775 173.73 104.486 172.773C105.206 171.807 105.566 170.376 105.566 168.48ZM114.084 166.307H117.926C119.603 166.325 120.929 166.762 121.904 167.619C122.88 168.476 123.367 169.638 123.367 171.105C123.367 172.582 122.866 173.767 121.863 174.66C120.861 175.553 119.512 176 117.816 176H111.555V161.207H114.084V166.307ZM114.084 168.371V173.936H117.844C118.792 173.936 119.525 173.694 120.045 173.211C120.564 172.719 120.824 172.049 120.824 171.201C120.824 170.381 120.569 169.711 120.059 169.191C119.557 168.663 118.851 168.389 117.939 168.371H114.084ZM45.752 209H32.709V207.182L39.5996 199.525C40.6204 198.368 41.3223 197.429 41.7051 196.709C42.097 195.98 42.293 195.228 42.293 194.453C42.293 193.414 41.9785 192.562 41.3496 191.896C40.7207 191.231 39.8822 190.898 38.834 190.898C37.5762 190.898 36.5964 191.258 35.8945 191.979C35.2018 192.689 34.8555 193.683 34.8555 194.959H32.3262C32.3262 193.127 32.9141 191.646 34.0898 190.516C35.2747 189.385 36.8561 188.82 38.834 188.82C40.6842 188.82 42.1471 189.308 43.2227 190.283C44.2982 191.249 44.8359 192.539 44.8359 194.152C44.8359 196.112 43.5872 198.445 41.0898 201.152L35.7578 206.936H45.752V209ZM60.9141 200.51C60.9141 203.472 60.4082 205.673 59.3965 207.113C58.3848 208.553 56.8034 209.273 54.6523 209.273C52.5286 209.273 50.9564 208.572 49.9355 207.168C48.9147 205.755 48.3861 203.65 48.3496 200.852V197.475C48.3496 194.549 48.8555 192.375 49.8672 190.953C50.8789 189.531 52.4648 188.82 54.625 188.82C56.7669 188.82 58.3438 189.508 59.3555 190.885C60.3672 192.252 60.8867 194.367 60.9141 197.229V200.51ZM58.3848 197.051C58.3848 194.909 58.084 193.35 57.4824 192.375C56.8809 191.391 55.9284 190.898 54.625 190.898C53.3307 190.898 52.3874 191.386 51.7949 192.361C51.2025 193.337 50.8971 194.836 50.8789 196.859V200.906C50.8789 203.057 51.1888 204.648 51.8086 205.678C52.4375 206.699 53.3854 207.209 54.6523 207.209C55.901 207.209 56.8262 206.726 57.4277 205.76C58.0384 204.794 58.3574 203.271 58.3848 201.193V197.051ZM77.1973 209H64.1543V207.182L71.0449 199.525C72.0658 198.368 72.7676 197.429 73.1504 196.709C73.5423 195.98 73.7383 195.228 73.7383 194.453C73.7383 193.414 73.4238 192.562 72.7949 191.896C72.166 191.231 71.3275 190.898 70.2793 190.898C69.0215 190.898 68.0417 191.258 67.3398 191.979C66.6471 192.689 66.3008 193.683 66.3008 194.959H63.7715C63.7715 193.127 64.3594 191.646 65.5352 190.516C66.7201 189.385 68.3014 188.82 70.2793 188.82C72.1296 188.82 73.5924 189.308 74.668 190.283C75.7435 191.249 76.2812 192.539 76.2812 194.152C76.2812 196.112 75.0326 198.445 72.5352 201.152L67.2031 206.936H77.1973V209ZM92.3594 200.51C92.3594 203.472 91.8535 205.673 90.8418 207.113C89.8301 208.553 88.2487 209.273 86.0977 209.273C83.974 209.273 82.4017 208.572 81.3809 207.168C80.36 205.755 79.8314 203.65 79.7949 200.852V197.475C79.7949 194.549 80.3008 192.375 81.3125 190.953C82.3242 189.531 83.9102 188.82 86.0703 188.82C88.2122 188.82 89.7891 189.508 90.8008 190.885C91.8125 192.252 92.332 194.367 92.3594 197.229V200.51ZM89.8301 197.051C89.8301 194.909 89.5293 193.35 88.9277 192.375C88.3262 191.391 87.3737 190.898 86.0703 190.898C84.776 190.898 83.8327 191.386 83.2402 192.361C82.6478 193.337 82.3424 194.836 82.3242 196.859V200.906C82.3242 203.057 82.6341 204.648 83.2539 205.678C83.8828 206.699 84.8307 207.209 86.0977 207.209C87.3464 207.209 88.2715 206.726 88.873 205.76C89.4837 204.794 89.8027 203.271 89.8301 201.193V197.051Z" fill="#3E3E41"/>
<path d="M288.949 166.689C288.949 168.64 288.621 170.344 287.965 171.803C287.309 173.252 286.379 174.359 285.176 175.125C283.973 175.891 282.569 176.273 280.965 176.273C279.397 176.273 278.007 175.891 276.795 175.125C275.583 174.35 274.639 173.252 273.965 171.83C273.299 170.399 272.958 168.745 272.939 166.867V165.432C272.939 163.518 273.272 161.827 273.938 160.359C274.603 158.892 275.542 157.771 276.754 156.996C277.975 156.212 279.37 155.82 280.938 155.82C282.533 155.82 283.936 156.208 285.148 156.982C286.37 157.748 287.309 158.865 287.965 160.332C288.621 161.79 288.949 163.49 288.949 165.432V166.689ZM286.338 165.404C286.338 163.044 285.864 161.234 284.916 159.977C283.968 158.71 282.642 158.076 280.938 158.076C279.279 158.076 277.971 158.71 277.014 159.977C276.066 161.234 275.578 162.984 275.551 165.227V166.689C275.551 168.977 276.029 170.777 276.986 172.09C277.952 173.393 279.279 174.045 280.965 174.045C282.66 174.045 283.973 173.43 284.902 172.199C285.832 170.96 286.311 169.187 286.338 166.881V165.404ZM297.098 169.697H295.252V176H292.709V161.207H295.252V167.469H296.906L301.883 161.207H304.945L299.094 168.316L305.438 176H302.225L297.098 169.697ZM318.604 163.258H313.641V176H311.111V163.258H306.244V161.207H318.604V163.258ZM332.371 161.207V176H329.828V170.244H326.014L322.527 176H319.793L323.512 169.861C322.564 169.515 321.835 168.982 321.324 168.262C320.823 167.533 320.572 166.685 320.572 165.719C320.572 164.37 321.078 163.285 322.09 162.465C323.102 161.635 324.455 161.216 326.15 161.207H332.371ZM323.115 165.746C323.115 166.466 323.361 167.049 323.854 167.496C324.346 167.934 324.997 168.157 325.809 168.166H329.828V163.258H326.191C325.253 163.258 324.505 163.49 323.949 163.955C323.393 164.411 323.115 165.008 323.115 165.746ZM342.926 162.055C344.785 162.055 346.271 162.679 347.383 163.928C348.504 165.167 349.064 166.803 349.064 168.836V169.068C349.064 170.463 348.796 171.712 348.258 172.814C347.72 173.908 346.945 174.76 345.934 175.371C344.931 175.973 343.773 176.273 342.461 176.273C340.474 176.273 338.874 175.613 337.662 174.291C336.45 172.96 335.844 171.178 335.844 168.945V167.715C335.844 164.607 336.418 162.137 337.566 160.305C338.724 158.473 340.428 157.356 342.68 156.955C343.956 156.727 344.817 156.449 345.264 156.121C345.71 155.793 345.934 155.342 345.934 154.768H348.012C348.012 155.907 347.752 156.796 347.232 157.434C346.722 158.072 345.902 158.523 344.771 158.787L342.885 159.211C341.381 159.566 340.251 160.168 339.494 161.016C338.747 161.854 338.259 162.975 338.031 164.379C339.371 162.829 341.003 162.055 342.926 162.055ZM342.434 164.133C341.194 164.133 340.21 164.552 339.48 165.391C338.751 166.22 338.387 167.373 338.387 168.85V169.068C338.387 170.654 338.751 171.912 339.48 172.842C340.219 173.762 341.212 174.223 342.461 174.223C343.719 174.223 344.712 173.758 345.441 172.828C346.171 171.898 346.535 170.54 346.535 168.754C346.535 167.359 346.166 166.243 345.428 165.404C344.699 164.557 343.701 164.133 342.434 164.133ZM364.158 168.768C364.158 171.019 363.643 172.833 362.613 174.209C361.583 175.585 360.189 176.273 358.43 176.273C356.634 176.273 355.221 175.704 354.191 174.564V181.688H351.662V161.207H353.973L354.096 162.848C355.126 161.572 356.557 160.934 358.389 160.934C360.166 160.934 361.57 161.604 362.6 162.943C363.639 164.283 364.158 166.147 364.158 168.535V168.768ZM361.629 168.48C361.629 166.812 361.273 165.495 360.562 164.529C359.852 163.563 358.876 163.08 357.637 163.08C356.105 163.08 354.957 163.759 354.191 165.117V172.186C354.948 173.535 356.105 174.209 357.664 174.209C358.876 174.209 359.838 173.73 360.549 172.773C361.269 171.807 361.629 170.376 361.629 168.48ZM370.146 166.307H373.988C375.665 166.325 376.992 166.762 377.967 167.619C378.942 168.476 379.43 169.638 379.43 171.105C379.43 172.582 378.928 173.767 377.926 174.66C376.923 175.553 375.574 176 373.879 176H367.617V161.207H370.146V166.307ZM370.146 168.371V173.936H373.906C374.854 173.936 375.588 173.694 376.107 173.211C376.627 172.719 376.887 172.049 376.887 171.201C376.887 170.381 376.632 169.711 376.121 169.191C375.62 168.663 374.913 168.389 374.002 168.371H370.146ZM309.252 209H296.209V207.182L303.1 199.525C304.12 198.368 304.822 197.429 305.205 196.709C305.597 195.98 305.793 195.228 305.793 194.453C305.793 193.414 305.479 192.562 304.85 191.896C304.221 191.231 303.382 190.898 302.334 190.898C301.076 190.898 300.096 191.258 299.395 191.979C298.702 192.689 298.355 193.683 298.355 194.959H295.826C295.826 193.127 296.414 191.646 297.59 190.516C298.775 189.385 300.356 188.82 302.334 188.82C304.184 188.82 305.647 189.308 306.723 190.283C307.798 191.249 308.336 192.539 308.336 194.152C308.336 196.112 307.087 198.445 304.59 201.152L299.258 206.936H309.252V209ZM324.414 200.51C324.414 203.472 323.908 205.673 322.896 207.113C321.885 208.553 320.303 209.273 318.152 209.273C316.029 209.273 314.456 208.572 313.436 207.168C312.415 205.755 311.886 203.65 311.85 200.852V197.475C311.85 194.549 312.355 192.375 313.367 190.953C314.379 189.531 315.965 188.82 318.125 188.82C320.267 188.82 321.844 189.508 322.855 190.885C323.867 192.252 324.387 194.367 324.414 197.229V200.51ZM321.885 197.051C321.885 194.909 321.584 193.35 320.982 192.375C320.381 191.391 319.428 190.898 318.125 190.898C316.831 190.898 315.887 191.386 315.295 192.361C314.702 193.337 314.397 194.836 314.379 196.859V200.906C314.379 203.057 314.689 204.648 315.309 205.678C315.938 206.699 316.885 207.209 318.152 207.209C319.401 207.209 320.326 206.726 320.928 205.76C321.538 204.794 321.857 203.271 321.885 201.193V197.051ZM340.697 209H327.654V207.182L334.545 199.525C335.566 198.368 336.268 197.429 336.65 196.709C337.042 195.98 337.238 195.228 337.238 194.453C337.238 193.414 336.924 192.562 336.295 191.896C335.666 191.231 334.827 190.898 333.779 190.898C332.521 190.898 331.542 191.258 330.84 191.979C330.147 192.689 329.801 193.683 329.801 194.959H327.271C327.271 193.127 327.859 191.646 329.035 190.516C330.22 189.385 331.801 188.82 333.779 188.82C335.63 188.82 337.092 189.308 338.168 190.283C339.243 191.249 339.781 192.539 339.781 194.152C339.781 196.112 338.533 198.445 336.035 201.152L330.703 206.936H340.697V209ZM355.859 200.51C355.859 203.472 355.354 205.673 354.342 207.113C353.33 208.553 351.749 209.273 349.598 209.273C347.474 209.273 345.902 208.572 344.881 207.168C343.86 205.755 343.331 203.65 343.295 200.852V197.475C343.295 194.549 343.801 192.375 344.812 190.953C345.824 189.531 347.41 188.82 349.57 188.82C351.712 188.82 353.289 189.508 354.301 190.885C355.312 192.252 355.832 194.367 355.859 197.229V200.51ZM353.33 197.051C353.33 194.909 353.029 193.35 352.428 192.375C351.826 191.391 350.874 190.898 349.57 190.898C348.276 190.898 347.333 191.386 346.74 192.361C346.148 193.337 345.842 194.836 345.824 196.859V200.906C345.824 203.057 346.134 204.648 346.754 205.678C347.383 206.699 348.331 207.209 349.598 207.209C350.846 207.209 351.771 206.726 352.373 205.76C352.984 204.794 353.303 203.271 353.33 201.193V197.051Z" fill="#3E3E41"/>
<mask id="mask0" mask-type="alpha" maskUnits="userSpaceOnUse" x="10" y="31" width="52" height="89">
<path d="M62 59L10 31V90L62 120V59Z" fill="#C4C4C4"/>
</mask>
<g mask="url(#mask0)">
<path fill-rule="evenodd" clip-rule="evenodd" d="M-67.6463 112.354L70.3537 -25.6464L69.6466 -26.3535L-68.3534 111.646L-67.6463 112.354ZM-64.6463 115.354L73.3537 -22.6464L72.6466 -23.3535L-65.3534 114.646L-64.6463 115.354ZM-61.6463 118.354L76.3537 -19.6464L75.6466 -20.3535L-62.3534 117.646L-61.6463 118.354ZM-58.6463 121.354L79.3537 -16.6464L78.6466 -17.3535L-59.3534 120.646L-58.6463 121.354ZM-55.6463 124.354L82.3537 -13.6464L81.6466 -14.3535L-56.3534 123.646L-55.6463 124.354ZM-52.6463 127.354L85.3537 -10.6464L84.6466 -11.3535L-53.3534 126.646L-52.6463 127.354ZM-49.6463 130.354L88.3537 -7.64641L87.6466 -8.35352L-50.3534 129.646L-49.6463 130.354ZM-46.6463 133.354L91.3537 -4.64641L90.6466 -5.35352L-47.3534 132.646L-46.6463 133.354ZM-43.6463 136.354L94.3537 -1.64641L93.6466 -2.35352L-44.3534 135.646L-43.6463 136.354ZM-40.6463 139.354L97.3537 1.35359L96.6466 0.646484L-41.3534 138.646L-40.6463 139.354ZM-37.557 142.354L100.443 4.35359L99.7359 3.64648L-38.2641 141.646L-37.557 142.354ZM-34.1463 145.354L103.854 7.35359L103.147 6.64648L-34.8534 144.646L-34.1463 145.354ZM-28.1463 145.854L109.854 7.85355L109.147 7.14645L-28.8534 145.146L-28.1463 145.854ZM-25.1463 148.854L112.854 10.8536L112.147 10.1464L-25.8534 148.146L-25.1463 148.854ZM-22.1463 151.854L115.854 13.8536L115.147 13.1464L-22.8534 151.146L-22.1463 151.854ZM-19.1463 154.854L118.854 16.8536L118.147 16.1464L-19.8534 154.146L-19.1463 154.854ZM-16.1463 157.854L121.854 19.8536L121.147 19.1464L-16.8534 157.146L-16.1463 157.854ZM-13.1463 160.854L124.854 22.8536L124.147 22.1464L-13.8534 160.146L-13.1463 160.854ZM-10.1463 163.854L127.854 25.8536L127.147 25.1464L-10.8534 163.146L-10.1463 163.854ZM-7.14632 166.854L130.854 28.8536L130.147 28.1464L-7.85343 166.146L-7.14632 166.854ZM-4.14632 169.854L133.854 31.8536L133.147 31.1464L-4.85343 169.146L-4.14632 169.854ZM-1.14632 172.764L136.854 34.7643L136.147 34.0572L-1.85343 172.057L-1.14632 172.764ZM2.35367 175.854L140.354 37.8536L139.647 37.1464L1.64656 175.146L2.35367 175.854Z" fill="white"/>
</g>
<mask id="mask1" mask-type="alpha" maskUnits="userSpaceOnUse" x="273" y="31" width="52" height="89">
<path d="M325 59L273 31V90L325 120V59Z" fill="#C4C4C4"/>
</mask>
<g mask="url(#mask1)">
<path fill-rule="evenodd" clip-rule="evenodd" d="M195.354 112.354L333.354 -25.6464L332.647 -26.3535L194.647 111.646L195.354 112.354ZM198.354 115.354L336.354 -22.6464L335.647 -23.3535L197.647 114.646L198.354 115.354ZM201.354 118.354L339.354 -19.6464L338.647 -20.3535L200.647 117.646L201.354 118.354ZM204.354 121.354L342.354 -16.6464L341.647 -17.3535L203.647 120.646L204.354 121.354ZM207.354 124.354L345.354 -13.6464L344.647 -14.3535L206.647 123.646L207.354 124.354ZM210.354 127.354L348.354 -10.6464L347.647 -11.3535L209.647 126.646L210.354 127.354ZM213.354 130.354L351.354 -7.64641L350.647 -8.35352L212.647 129.646L213.354 130.354ZM216.354 133.354L354.354 -4.64641L353.647 -5.35352L215.647 132.646L216.354 133.354ZM219.354 136.354L357.354 -1.64641L356.647 -2.35352L218.647 135.646L219.354 136.354ZM222.354 139.354L360.354 1.35359L359.647 0.646484L221.647 138.646L222.354 139.354ZM225.443 142.354L363.443 4.35359L362.736 3.64648L224.736 141.646L225.443 142.354ZM228.854 145.354L366.854 7.35359L366.147 6.64648L228.147 144.646L228.854 145.354ZM234.854 145.854L372.854 7.85355L372.147 7.14645L234.147 145.146L234.854 145.854ZM237.854 148.854L375.854 10.8536L375.147 10.1464L237.147 148.146L237.854 148.854ZM240.854 151.854L378.854 13.8536L378.147 13.1464L240.147 151.146L240.854 151.854ZM243.854 154.854L381.854 16.8536L381.147 16.1464L243.147 154.146L243.854 154.854ZM246.854 157.854L384.854 19.8536L384.147 19.1464L246.147 157.146L246.854 157.854ZM249.854 160.854L387.854 22.8536L387.147 22.1464L249.147 160.146L249.854 160.854ZM252.854 163.854L390.854 25.8536L390.147 25.1464L252.147 163.146L252.854 163.854ZM255.854 166.854L393.854 28.8536L393.147 28.1464L255.147 166.146L255.854 166.854ZM258.854 169.854L396.854 31.8536L396.147 31.1464L258.147 169.146L258.854 169.854ZM261.854 172.764L399.854 34.7643L399.147 34.0572L261.147 172.057L261.854 172.764ZM265.354 175.854L403.354 37.8536L402.647 37.1464L264.647 175.146L265.354 175.854Z" fill="white"/>
</g>
</svg>
