<svg width="359" height="216" viewBox="0 0 359 216" fill="none" xmlns="http://www.w3.org/2000/svg">
<path fill-rule="evenodd" clip-rule="evenodd" d="M329.765 14.8284L303.515 0L277.265 14.8284L251.429 29.9684L303.512 58.1053L355.171 29.7167L329.765 14.8284ZM355.778 30.5238L304.014 58.9705V120.001L329.765 105.455L355.775 90.2126L356.015 60.1417L355.778 30.5238ZM303.014 120.001V58.9729L251.247 31.0066L251.015 60.1417L251.254 90.2126L277.265 105.455L303.014 120.001Z" fill="#84559C"/>
<path fill-rule="evenodd" clip-rule="evenodd" d="M78.75 14.8284L52.5 0L26.25 14.8284L0.414646 29.9684L52.4977 58.1053L104.156 29.7167L78.75 14.8284ZM104.764 30.5238L52.9997 58.9705V120.001L78.75 105.455L104.76 90.2126L105 60.1417L104.764 30.5238ZM51.9997 120.001V58.9729L0.232386 31.0066L0 60.1417L0.239849 90.2126L26.25 105.455L51.9997 120.001Z" fill="#84559C"/>
<path d="M21.8828 176H19.2441V166.799H9.20898V176H6.58398V156.094H9.20898V164.652H19.2441V156.094H21.8828V176ZM25.4785 168.467C25.4785 167.018 25.7611 165.714 26.3262 164.557C26.9004 163.399 27.6934 162.506 28.7051 161.877C29.7259 161.248 30.888 160.934 32.1914 160.934C34.2057 160.934 35.8327 161.631 37.0723 163.025C38.321 164.42 38.9453 166.275 38.9453 168.59V168.768C38.9453 170.208 38.6673 171.502 38.1113 172.65C37.5645 173.79 36.776 174.678 35.7461 175.316C34.7253 175.954 33.5495 176.273 32.2188 176.273C30.2135 176.273 28.5866 175.576 27.3379 174.182C26.0983 172.787 25.4785 170.941 25.4785 168.645V168.467ZM28.0215 168.768C28.0215 170.408 28.3997 171.725 29.1562 172.719C29.9219 173.712 30.9427 174.209 32.2188 174.209C33.5039 174.209 34.5247 173.708 35.2812 172.705C36.0378 171.693 36.416 170.281 36.416 168.467C36.416 166.844 36.0286 165.532 35.2539 164.529C34.4883 163.518 33.4674 163.012 32.1914 163.012C30.9427 163.012 29.9355 163.508 29.1699 164.502C28.4043 165.495 28.0215 166.917 28.0215 168.768ZM53.4238 161.207V176H50.8809V170.244H47.0664L43.5801 176H40.8457L44.5645 169.861C43.6165 169.515 42.8874 168.982 42.377 168.262C41.8757 167.533 41.625 166.685 41.625 165.719C41.625 164.37 42.1309 163.285 43.1426 162.465C44.1543 161.635 45.5078 161.216 47.2031 161.207H53.4238ZM44.168 165.746C44.168 166.466 44.4141 167.049 44.9062 167.496C45.3984 167.934 46.0501 168.157 46.8613 168.166H50.8809V163.258H47.2441C46.3053 163.258 45.5579 163.49 45.002 163.955C44.446 164.411 44.168 165.008 44.168 165.746ZM63.9785 162.055C65.8379 162.055 67.3236 162.679 68.4355 163.928C69.5566 165.167 70.1172 166.803 70.1172 168.836V169.068C70.1172 170.463 69.8483 171.712 69.3105 172.814C68.7728 173.908 67.998 174.76 66.9863 175.371C65.9837 175.973 64.8262 176.273 63.5137 176.273C61.5267 176.273 59.9271 175.613 58.7148 174.291C57.5026 172.96 56.8965 171.178 56.8965 168.945V167.715C56.8965 164.607 57.4707 162.137 58.6191 160.305C59.7767 158.473 61.4811 157.356 63.7324 156.955C65.0085 156.727 65.8698 156.449 66.3164 156.121C66.763 155.793 66.9863 155.342 66.9863 154.768H69.0645C69.0645 155.907 68.8047 156.796 68.2852 157.434C67.7747 158.072 66.9544 158.523 65.8242 158.787L63.9375 159.211C62.4336 159.566 61.3034 160.168 60.5469 161.016C59.7995 161.854 59.3118 162.975 59.084 164.379C60.4238 162.829 62.0553 162.055 63.9785 162.055ZM63.4863 164.133C62.2467 164.133 61.2624 164.552 60.5332 165.391C59.804 166.22 59.4395 167.373 59.4395 168.85V169.068C59.4395 170.654 59.804 171.912 60.5332 172.842C61.2715 173.762 62.265 174.223 63.5137 174.223C64.7715 174.223 65.765 173.758 66.4941 172.828C67.2233 171.898 67.5879 170.54 67.5879 168.754C67.5879 167.359 67.2188 166.243 66.4805 165.404C65.7513 164.557 64.7533 164.133 63.4863 164.133ZM85.2109 168.768C85.2109 171.019 84.696 172.833 83.666 174.209C82.6361 175.585 81.2415 176.273 79.4824 176.273C77.6868 176.273 76.2741 175.704 75.2441 174.564V181.688H72.7148V161.207H75.0254L75.1484 162.848C76.1784 161.572 77.6094 160.934 79.4414 160.934C81.2188 160.934 82.6224 161.604 83.6523 162.943C84.6914 164.283 85.2109 166.147 85.2109 168.535V168.768ZM82.6816 168.48C82.6816 166.812 82.3262 165.495 81.6152 164.529C80.9043 163.563 79.929 163.08 78.6895 163.08C77.1582 163.08 76.0098 163.759 75.2441 165.117V172.186C76.0007 173.535 77.1582 174.209 78.7168 174.209C79.929 174.209 80.8906 173.73 81.6016 172.773C82.3216 171.807 82.6816 170.376 82.6816 168.48ZM91.1992 166.307H95.041C96.7181 166.325 98.0443 166.762 99.0195 167.619C99.9948 168.476 100.482 169.638 100.482 171.105C100.482 172.582 99.9811 173.767 98.9785 174.66C97.9759 175.553 96.627 176 94.9316 176H88.6699V161.207H91.1992V166.307ZM91.1992 168.371V173.936H94.959C95.9069 173.936 96.6406 173.694 97.1602 173.211C97.6797 172.719 97.9395 172.049 97.9395 171.201C97.9395 170.381 97.6842 169.711 97.1738 169.191C96.6725 168.663 95.9661 168.389 95.0547 168.371H91.1992ZM36.252 209H23.209V207.182L30.0996 199.525C31.1204 198.368 31.8223 197.429 32.2051 196.709C32.597 195.98 32.793 195.228 32.793 194.453C32.793 193.414 32.4785 192.562 31.8496 191.896C31.2207 191.231 30.3822 190.898 29.334 190.898C28.0762 190.898 27.0964 191.258 26.3945 191.979C25.7018 192.689 25.3555 193.683 25.3555 194.959H22.8262C22.8262 193.127 23.4141 191.646 24.5898 190.516C25.7747 189.385 27.3561 188.82 29.334 188.82C31.1842 188.82 32.6471 189.308 33.7227 190.283C34.7982 191.249 35.3359 192.539 35.3359 194.152C35.3359 196.112 34.0872 198.445 31.5898 201.152L26.2578 206.936H36.252V209ZM51.4141 200.51C51.4141 203.472 50.9082 205.673 49.8965 207.113C48.8848 208.553 47.3034 209.273 45.1523 209.273C43.0286 209.273 41.4564 208.572 40.4355 207.168C39.4147 205.755 38.8861 203.65 38.8496 200.852V197.475C38.8496 194.549 39.3555 192.375 40.3672 190.953C41.3789 189.531 42.9648 188.82 45.125 188.82C47.2669 188.82 48.8438 189.508 49.8555 190.885C50.8672 192.252 51.3867 194.367 51.4141 197.229V200.51ZM48.8848 197.051C48.8848 194.909 48.584 193.35 47.9824 192.375C47.3809 191.391 46.4284 190.898 45.125 190.898C43.8307 190.898 42.8874 191.386 42.2949 192.361C41.7025 193.337 41.3971 194.836 41.3789 196.859V200.906C41.3789 203.057 41.6888 204.648 42.3086 205.678C42.9375 206.699 43.8854 207.209 45.1523 207.209C46.401 207.209 47.3262 206.726 47.9277 205.76C48.5384 204.794 48.8574 203.271 48.8848 201.193V197.051ZM67.6973 209H54.6543V207.182L61.5449 199.525C62.5658 198.368 63.2676 197.429 63.6504 196.709C64.0423 195.98 64.2383 195.228 64.2383 194.453C64.2383 193.414 63.9238 192.562 63.2949 191.896C62.666 191.231 61.8275 190.898 60.7793 190.898C59.5215 190.898 58.5417 191.258 57.8398 191.979C57.1471 192.689 56.8008 193.683 56.8008 194.959H54.2715C54.2715 193.127 54.8594 191.646 56.0352 190.516C57.2201 189.385 58.8014 188.82 60.7793 188.82C62.6296 188.82 64.0924 189.308 65.168 190.283C66.2435 191.249 66.7812 192.539 66.7812 194.152C66.7812 196.112 65.5326 198.445 63.0352 201.152L57.7031 206.936H67.6973V209ZM82.8594 200.51C82.8594 203.472 82.3535 205.673 81.3418 207.113C80.3301 208.553 78.7487 209.273 76.5977 209.273C74.474 209.273 72.9017 208.572 71.8809 207.168C70.86 205.755 70.3314 203.65 70.2949 200.852V197.475C70.2949 194.549 70.8008 192.375 71.8125 190.953C72.8242 189.531 74.4102 188.82 76.5703 188.82C78.7122 188.82 80.2891 189.508 81.3008 190.885C82.3125 192.252 82.832 194.367 82.8594 197.229V200.51ZM80.3301 197.051C80.3301 194.909 80.0293 193.35 79.4277 192.375C78.8262 191.391 77.8737 190.898 76.5703 190.898C75.276 190.898 74.3327 191.386 73.7402 192.361C73.1478 193.337 72.8424 194.836 72.8242 196.859V200.906C72.8242 203.057 73.1341 204.648 73.7539 205.678C74.3828 206.699 75.3307 207.209 76.5977 207.209C77.8464 207.209 78.7715 206.726 79.373 205.76C79.9837 204.794 80.3027 203.271 80.3301 201.193V197.051Z" fill="#3E3E41"/>
<path d="M256.246 158.09H256.67C258.174 158.099 259.546 158.45 260.785 159.143C262.025 159.835 262.986 160.792 263.67 162.014C264.363 163.226 264.709 164.584 264.709 166.088C264.709 167.601 264.363 168.973 263.67 170.203C262.977 171.434 262.02 172.395 260.799 173.088C259.577 173.771 258.219 174.122 256.725 174.141H256.246V176.82H253.703V174.141H253.32C251.798 174.141 250.413 173.794 249.164 173.102C247.924 172.409 246.958 171.452 246.266 170.23C245.582 169.009 245.24 167.637 245.24 166.115C245.24 164.593 245.582 163.221 246.266 162C246.958 160.779 247.924 159.822 249.164 159.129C250.413 158.436 251.798 158.09 253.32 158.09H253.703V155.273H256.246V158.09ZM253.32 160.154C251.607 160.154 250.249 160.683 249.246 161.74C248.253 162.788 247.756 164.247 247.756 166.115C247.756 167.993 248.253 169.456 249.246 170.504C250.24 171.543 251.607 172.062 253.348 172.062H253.703V160.154H253.32ZM256.246 160.154V172.062H256.629C258.37 172.062 259.728 171.529 260.703 170.463C261.688 169.387 262.18 167.929 262.18 166.088C262.18 164.265 261.688 162.82 260.703 161.754C259.728 160.688 258.352 160.154 256.574 160.154H256.246ZM273.76 176.273C271.755 176.273 270.123 175.617 268.865 174.305C267.607 172.983 266.979 171.219 266.979 169.014V168.549C266.979 167.081 267.257 165.773 267.812 164.625C268.378 163.467 269.161 162.565 270.164 161.918C271.176 161.262 272.27 160.934 273.445 160.934C275.368 160.934 276.863 161.567 277.93 162.834C278.996 164.101 279.529 165.915 279.529 168.275V169.328H269.508C269.544 170.786 269.968 171.967 270.779 172.869C271.6 173.762 272.639 174.209 273.896 174.209C274.79 174.209 275.546 174.027 276.166 173.662C276.786 173.298 277.328 172.814 277.793 172.213L279.338 173.416C278.098 175.321 276.239 176.273 273.76 176.273ZM273.445 163.012C272.424 163.012 271.568 163.385 270.875 164.133C270.182 164.871 269.754 165.91 269.59 167.25H277V167.059C276.927 165.773 276.581 164.78 275.961 164.078C275.341 163.367 274.503 163.012 273.445 163.012ZM282.701 176V161.207H288.471C290.439 161.207 291.948 161.553 292.996 162.246C294.053 162.93 294.582 163.937 294.582 165.268C294.582 165.951 294.377 166.571 293.967 167.127C293.557 167.674 292.951 168.093 292.148 168.385C293.042 168.594 293.757 169.005 294.295 169.615C294.842 170.226 295.115 170.955 295.115 171.803C295.115 173.161 294.614 174.2 293.611 174.92C292.618 175.64 291.21 176 289.387 176H282.701ZM285.23 169.506V173.963H289.414C290.471 173.963 291.26 173.767 291.779 173.375C292.308 172.983 292.572 172.432 292.572 171.721C292.572 170.244 291.488 169.506 289.318 169.506H285.23ZM285.23 167.482H288.498C290.868 167.482 292.053 166.79 292.053 165.404C292.053 164.019 290.932 163.303 288.689 163.258H285.23V167.482ZM310.961 168.768C310.961 171.019 310.446 172.833 309.416 174.209C308.386 175.585 306.992 176.273 305.232 176.273C303.437 176.273 302.024 175.704 300.994 174.564V181.688H298.465V161.207H300.775L300.898 162.848C301.928 161.572 303.359 160.934 305.191 160.934C306.969 160.934 308.372 161.604 309.402 162.943C310.441 164.283 310.961 166.147 310.961 168.535V168.768ZM308.432 168.48C308.432 166.812 308.076 165.495 307.365 164.529C306.654 163.563 305.679 163.08 304.439 163.08C302.908 163.08 301.76 163.759 300.994 165.117V172.186C301.751 173.535 302.908 174.209 304.467 174.209C305.679 174.209 306.641 173.73 307.352 172.773C308.072 171.807 308.432 170.376 308.432 168.48ZM323.32 176C323.174 175.708 323.056 175.189 322.965 174.441C321.789 175.663 320.385 176.273 318.754 176.273C317.296 176.273 316.097 175.863 315.158 175.043C314.229 174.214 313.764 173.165 313.764 171.898C313.764 170.358 314.347 169.164 315.514 168.316C316.689 167.46 318.339 167.031 320.463 167.031H322.924V165.869C322.924 164.985 322.66 164.283 322.131 163.764C321.602 163.235 320.823 162.971 319.793 162.971C318.891 162.971 318.134 163.199 317.523 163.654C316.913 164.11 316.607 164.661 316.607 165.309H314.064C314.064 164.57 314.324 163.859 314.844 163.176C315.372 162.483 316.083 161.936 316.977 161.535C317.879 161.134 318.868 160.934 319.943 160.934C321.648 160.934 322.983 161.362 323.949 162.219C324.915 163.066 325.417 164.238 325.453 165.732V172.541C325.453 173.899 325.626 174.979 325.973 175.781V176H323.32ZM319.123 174.072C319.916 174.072 320.668 173.867 321.379 173.457C322.09 173.047 322.605 172.514 322.924 171.857V168.822H320.941C317.842 168.822 316.293 169.729 316.293 171.543C316.293 172.336 316.557 172.956 317.086 173.402C317.615 173.849 318.294 174.072 319.123 174.072ZM341.545 161.207V176H339.002V163.299H333.971L333.67 168.836C333.506 171.379 333.077 173.197 332.385 174.291C331.701 175.385 330.612 175.954 329.117 176H328.105V173.771L328.83 173.717C329.65 173.626 330.238 173.152 330.594 172.295C330.949 171.438 331.177 169.852 331.277 167.537L331.551 161.207H341.545ZM348.367 166.307H352.209C353.886 166.325 355.212 166.762 356.188 167.619C357.163 168.476 357.65 169.638 357.65 171.105C357.65 172.582 357.149 173.767 356.146 174.66C355.144 175.553 353.795 176 352.1 176H345.838V161.207H348.367V166.307ZM348.367 168.371V173.936H352.127C353.075 173.936 353.809 173.694 354.328 173.211C354.848 172.719 355.107 172.049 355.107 171.201C355.107 170.381 354.852 169.711 354.342 169.191C353.84 168.663 353.134 168.389 352.223 168.371H348.367ZM284.752 209H271.709V207.182L278.6 199.525C279.62 198.368 280.322 197.429 280.705 196.709C281.097 195.98 281.293 195.228 281.293 194.453C281.293 193.414 280.979 192.562 280.35 191.896C279.721 191.231 278.882 190.898 277.834 190.898C276.576 190.898 275.596 191.258 274.895 191.979C274.202 192.689 273.855 193.683 273.855 194.959H271.326C271.326 193.127 271.914 191.646 273.09 190.516C274.275 189.385 275.856 188.82 277.834 188.82C279.684 188.82 281.147 189.308 282.223 190.283C283.298 191.249 283.836 192.539 283.836 194.152C283.836 196.112 282.587 198.445 280.09 201.152L274.758 206.936H284.752V209ZM299.914 200.51C299.914 203.472 299.408 205.673 298.396 207.113C297.385 208.553 295.803 209.273 293.652 209.273C291.529 209.273 289.956 208.572 288.936 207.168C287.915 205.755 287.386 203.65 287.35 200.852V197.475C287.35 194.549 287.855 192.375 288.867 190.953C289.879 189.531 291.465 188.82 293.625 188.82C295.767 188.82 297.344 189.508 298.355 190.885C299.367 192.252 299.887 194.367 299.914 197.229V200.51ZM297.385 197.051C297.385 194.909 297.084 193.35 296.482 192.375C295.881 191.391 294.928 190.898 293.625 190.898C292.331 190.898 291.387 191.386 290.795 192.361C290.202 193.337 289.897 194.836 289.879 196.859V200.906C289.879 203.057 290.189 204.648 290.809 205.678C291.438 206.699 292.385 207.209 293.652 207.209C294.901 207.209 295.826 206.726 296.428 205.76C297.038 204.794 297.357 203.271 297.385 201.193V197.051ZM316.197 209H303.154V207.182L310.045 199.525C311.066 198.368 311.768 197.429 312.15 196.709C312.542 195.98 312.738 195.228 312.738 194.453C312.738 193.414 312.424 192.562 311.795 191.896C311.166 191.231 310.327 190.898 309.279 190.898C308.021 190.898 307.042 191.258 306.34 191.979C305.647 192.689 305.301 193.683 305.301 194.959H302.771C302.771 193.127 303.359 191.646 304.535 190.516C305.72 189.385 307.301 188.82 309.279 188.82C311.13 188.82 312.592 189.308 313.668 190.283C314.743 191.249 315.281 192.539 315.281 194.152C315.281 196.112 314.033 198.445 311.535 201.152L306.203 206.936H316.197V209ZM331.359 200.51C331.359 203.472 330.854 205.673 329.842 207.113C328.83 208.553 327.249 209.273 325.098 209.273C322.974 209.273 321.402 208.572 320.381 207.168C319.36 205.755 318.831 203.65 318.795 200.852V197.475C318.795 194.549 319.301 192.375 320.312 190.953C321.324 189.531 322.91 188.82 325.07 188.82C327.212 188.82 328.789 189.508 329.801 190.885C330.812 192.252 331.332 194.367 331.359 197.229V200.51ZM328.83 197.051C328.83 194.909 328.529 193.35 327.928 192.375C327.326 191.391 326.374 190.898 325.07 190.898C323.776 190.898 322.833 191.386 322.24 192.361C321.648 193.337 321.342 194.836 321.324 196.859V200.906C321.324 203.057 321.634 204.648 322.254 205.678C322.883 206.699 323.831 207.209 325.098 207.209C326.346 207.209 327.271 206.726 327.873 205.76C328.484 204.794 328.803 203.271 328.83 201.193V197.051Z" fill="#3E3E41"/>
<mask id="mask0" mask-type="alpha" maskUnits="userSpaceOnUse" x="0" y="31" width="52" height="89">
<path d="M52 59L0 31V90L52 120V59Z" fill="#C4C4C4"/>
</mask>
<g mask="url(#mask0)">
<path fill-rule="evenodd" clip-rule="evenodd" d="M-77.6463 112.354L60.3537 -25.6464L59.6466 -26.3535L-78.3534 111.646L-77.6463 112.354ZM-74.6463 115.354L63.3537 -22.6464L62.6466 -23.3535L-75.3534 114.646L-74.6463 115.354ZM-71.6463 118.354L66.3537 -19.6464L65.6466 -20.3535L-72.3534 117.646L-71.6463 118.354ZM-68.6463 121.354L69.3537 -16.6464L68.6466 -17.3535L-69.3534 120.646L-68.6463 121.354ZM-65.6463 124.354L72.3537 -13.6464L71.6466 -14.3535L-66.3534 123.646L-65.6463 124.354ZM-62.6463 127.354L75.3537 -10.6464L74.6466 -11.3535L-63.3534 126.646L-62.6463 127.354ZM-59.6463 130.354L78.3537 -7.64641L77.6466 -8.35352L-60.3534 129.646L-59.6463 130.354ZM-56.6463 133.354L81.3537 -4.64641L80.6466 -5.35352L-57.3534 132.646L-56.6463 133.354ZM-53.6463 136.354L84.3537 -1.64641L83.6466 -2.35352L-54.3534 135.646L-53.6463 136.354ZM-50.6463 139.354L87.3537 1.35359L86.6466 0.646484L-51.3534 138.646L-50.6463 139.354ZM-47.557 142.354L90.443 4.35359L89.7359 3.64648L-48.2641 141.646L-47.557 142.354ZM-44.1463 145.354L93.8537 7.35359L93.1466 6.64648L-44.8534 144.646L-44.1463 145.354ZM-38.1463 145.854L99.8537 7.85355L99.1466 7.14645L-38.8534 145.146L-38.1463 145.854ZM-35.1463 148.854L102.854 10.8536L102.147 10.1464L-35.8534 148.146L-35.1463 148.854ZM-32.1463 151.854L105.854 13.8536L105.147 13.1464L-32.8534 151.146L-32.1463 151.854ZM-29.1463 154.854L108.854 16.8536L108.147 16.1464L-29.8534 154.146L-29.1463 154.854ZM-26.1463 157.854L111.854 19.8536L111.147 19.1464L-26.8534 157.146L-26.1463 157.854ZM-23.1463 160.854L114.854 22.8536L114.147 22.1464L-23.8534 160.146L-23.1463 160.854ZM-20.1463 163.854L117.854 25.8536L117.147 25.1464L-20.8534 163.146L-20.1463 163.854ZM-17.1463 166.854L120.854 28.8536L120.147 28.1464L-17.8534 166.146L-17.1463 166.854ZM-14.1463 169.854L123.854 31.8536L123.147 31.1464L-14.8534 169.146L-14.1463 169.854ZM-11.1463 172.764L126.854 34.7643L126.147 34.0572L-11.8534 172.057L-11.1463 172.764ZM-7.64633 175.854L130.354 37.8536L129.647 37.1464L-8.35344 175.146L-7.64633 175.854Z" fill="white"/>
</g>
<mask id="mask1" mask-type="alpha" maskUnits="userSpaceOnUse" x="251" y="31" width="52" height="89">
<path d="M303 59L251 31V90L303 120V59Z" fill="#C4C4C4"/>
</mask>
<g mask="url(#mask1)">
<path fill-rule="evenodd" clip-rule="evenodd" d="M173.354 112.354L311.354 -25.6464L310.647 -26.3535L172.647 111.646L173.354 112.354ZM176.354 115.354L314.354 -22.6464L313.647 -23.3535L175.647 114.646L176.354 115.354ZM179.354 118.354L317.354 -19.6464L316.647 -20.3535L178.647 117.646L179.354 118.354ZM182.354 121.354L320.354 -16.6464L319.647 -17.3535L181.647 120.646L182.354 121.354ZM185.354 124.354L323.354 -13.6464L322.647 -14.3535L184.647 123.646L185.354 124.354ZM188.354 127.354L326.354 -10.6464L325.647 -11.3535L187.647 126.646L188.354 127.354ZM191.354 130.354L329.354 -7.64641L328.647 -8.35352L190.647 129.646L191.354 130.354ZM194.354 133.354L332.354 -4.64641L331.647 -5.35352L193.647 132.646L194.354 133.354ZM197.354 136.354L335.354 -1.64641L334.647 -2.35352L196.647 135.646L197.354 136.354ZM200.354 139.354L338.354 1.35359L337.647 0.646484L199.647 138.646L200.354 139.354ZM203.443 142.354L341.443 4.35359L340.736 3.64648L202.736 141.646L203.443 142.354ZM206.854 145.354L344.854 7.35359L344.147 6.64648L206.147 144.646L206.854 145.354ZM212.854 145.854L350.854 7.85355L350.147 7.14645L212.147 145.146L212.854 145.854ZM215.854 148.854L353.854 10.8536L353.147 10.1464L215.147 148.146L215.854 148.854ZM218.854 151.854L356.854 13.8536L356.147 13.1464L218.147 151.146L218.854 151.854ZM221.854 154.854L359.854 16.8536L359.147 16.1464L221.147 154.146L221.854 154.854ZM224.854 157.854L362.854 19.8536L362.147 19.1464L224.147 157.146L224.854 157.854ZM227.854 160.854L365.854 22.8536L365.147 22.1464L227.147 160.146L227.854 160.854ZM230.854 163.854L368.854 25.8536L368.147 25.1464L230.147 163.146L230.854 163.854ZM233.854 166.854L371.854 28.8536L371.147 28.1464L233.147 166.146L233.854 166.854ZM236.854 169.854L374.854 31.8536L374.147 31.1464L236.147 169.146L236.854 169.854ZM239.854 172.764L377.854 34.7643L377.147 34.0572L239.147 172.057L239.854 172.764ZM243.354 175.854L381.354 37.8536L380.647 37.1464L242.647 175.146L243.354 175.854Z" fill="white"/>
</g>
</svg>
